<svg width="366" height="513" viewBox="0 0 366 513" fill="none" xmlns="http://www.w3.org/2000/svg">
<g clip-path="url(#clip0_1_3)">
<path d="M187.979 148.629L174.171 69.7951L149.568 72.305C149.568 72.305 143.882 49.0079 148.886 39.2668C158.632 19.2778 189.394 21.7788 195.583 45.8741C200.24 66.9608 213.258 82.2469 235.229 86.417C270.216 93.0972 299.727 63.2527 293.311 27.6459C284.05 27.2569 275.444 29.1057 268.719 31.9779C275.176 64.795 228.533 75.424 220.211 42.9177C212.027 0.228975 157.34 -17.2776 128.401 24.9175C117.591 43.5421 121.296 60.517 125.21 76.8511L100.84 82.7737L114.462 161.818C6.85066 204.93 -37.0827 343.711 38.7698 441.918C124.337 552.703 298.726 529.497 351.918 400.248C401.316 280.217 312.093 151.58 187.979 148.629Z" fill="black"/>
</g>
<defs>
<clipPath id="clip0_1_3">
<rect width="365" height="512" fill="white" transform="translate(0.730886 0.730886)"/>
</clipPath>
</defs>
</svg>
